<svg xmlns="http://www.w3.org/2000/svg" xmlns:xlink="http://www.w3.org/1999/xlink" xmlns:fi="http://pattern.flaticon.com/" x="0" y="0" width="1440" height="720" viewBox="0 0 1440 720"><rect x="0px" y="0px" width="100%" height="100%" opacity="1" fill="#ffffff"/><defs><g transform="matrix(0.10772330005793837 -0.07181553273452085 0.07181553273452085 0.10772330005793837 -7.96194119486956 47.807611565205114)" id="L1_80"><path d="m512 256c0 68.378906-26.628906 132.671875-74.980469 181.019531-48.347656 48.351563-112.640625 74.980469-181.019531 74.980469s-132.671875-26.628906-181.019531-74.980469c-48.351563-48.347656-74.980469-112.640625-74.980469-181.019531s26.628906-132.671875 74.980469-181.019531c48.347656-48.351563 112.640625-74.980469 181.019531-74.980469s132.671875 26.628906 181.019531 74.980469c48.351563 48.347656 74.980469 112.640625 74.980469 181.019531zm0 0" fill="#ffe171"/><path d="m512 256c0 68.378906-26.628906 132.671875-74.980469 181.019531-48.347656 48.351563-112.640625 74.980469-181.019531 74.980469v-512c68.378906 0 132.671875 26.628906 181.019531 74.980469 48.351563 48.347656 74.980469 112.640625 74.980469 181.019531zm0 0" fill="#ffd300"/><path d="m340.136719 225.667969c-30.695313 0-55.667969-24.972657-55.667969-55.667969h30c0 14.152344 11.515625 25.667969 25.667969 25.667969 14.152343 0 25.667969-11.515625 25.667969-25.667969h30c0 30.695312-24.972657 55.667969-55.667969 55.667969zm0 0" fill="#7a3d06"/><path d="m171.863281 225.667969c-30.695312 0-55.667969-24.972657-55.667969-55.667969h30c0 14.152344 11.515626 25.667969 25.667969 25.667969 14.152344 0 25.667969-11.515625 25.667969-25.667969h30c0 30.695312-24.972656 55.667969-55.667969 55.667969zm0 0" fill="#b26d3c"/><path d="m268.332031 373.144531v40.511719c0 11.230469 9.105469 20.335938 20.332031 20.335938h18.335938v46.015624c0 17.664063 14.320312 31.984376 31.984375 31.984376s31.984375-14.320313 31.984375-31.984376v-106.863281zm0 0" fill="#169eff"/><path d="m396.191406 337.578125c0 31.113281-25.3125 56.421875-56.421875 56.421875h-167.539062c-31.109375 0-56.421875-25.308594-56.421875-56.421875 0-31.109375 25.3125-56.429687 56.421875-56.429687h167.539062c31.109375 0 56.421875 25.320312 56.421875 56.429687zm0 0" fill="#f95858"/><path d="m396.191406 337.578125c0 31.113281-25.3125 56.421875-56.421875 56.421875h-83.769531v-112.851562h83.769531c31.109375 0 56.421875 25.320312 56.421875 56.429687zm0 0" fill="#ea1b5f"/></g><g transform="matrix(0.11324756742752633 0.0939126227175653 -0.0939126227175653 0.11324756742752633 174.05025415424998 255.96699132285653)" id="L1_81"><path d="m512 256c0 68.378906-26.628906 132.671875-74.980469 181.019531-48.347656 48.351563-112.640625 74.980469-181.019531 74.980469s-132.671875-26.628906-181.019531-74.980469c-48.351563-48.347656-74.980469-112.640625-74.980469-181.019531s26.628906-132.671875 74.980469-181.019531c48.347656-48.351563 112.640625-74.980469 181.019531-74.980469s132.671875 26.628906 181.019531 74.980469c48.351563 48.347656 74.980469 112.640625 74.980469 181.019531zm0 0" fill="#ffe171"/><path d="m512 256c0 68.378906-26.628906 132.671875-74.980469 181.019531-48.347656 48.351563-112.640625 74.980469-181.019531 74.980469v-512c68.378906 0 132.671875 26.628906 181.019531 74.980469 48.351563 48.347656 74.980469 112.640625 74.980469 181.019531zm0 0" fill="#ffd300"/><path d="m367.851562 397v50.21875c0 35.722656-29.0625 64.78125-64.78125 64.78125-18.519531 0-35.25-7.808594-47.070312-20.320312-10.96875-11.601563-17.710938-27.257813-17.710938-44.460938v-50.21875h15v-12.5h99.5625v12.5zm0 0" fill="#f95858"/><path d="m149.203125 136.859375c-49.074219 0-89 39.925781-89 89 0 49.078125 39.925781 89 89 89s89-39.921875 89-89c0-49.074219-39.925781-89-89-89zm0 0" fill="#dcf3ff"/><path d="m149.203125 136.859375c-27.332031 0-49.570313 22.238281-49.570313 49.570313 0 27.332031 22.238282 49.570312 49.570313 49.570312s49.570313-22.234375 49.570313-49.570312c0-27.332032-22.238282-49.570313-49.570313-49.570313zm0 0" fill="#b26d3c"/><path d="m362.796875 314.859375c49.074219 0 89-39.921875 89-89 0-49.074219-39.925781-89-89-89s-89 39.925781-89 89c0 49.078125 39.925781 89 89 89zm0 0" fill="#b0e2fa"/><path d="m362.796875 314.859375c27.332031 0 49.570313-22.234375 49.570313-49.566406s-22.238282-49.570313-49.570313-49.570313-49.570313 22.238282-49.570313 49.570313 22.238282 49.566406 49.570313 49.566406zm0 0" fill="#7a3d06"/><path d="m367.851562 397v50.21875c0 35.722656-29.0625 64.78125-64.78125 64.78125-18.519531 0-35.25-7.808594-47.070312-20.320312v-107.179688h96.851562v12.5zm0 0" fill="#ea1b5f"/><path d="m402.671875 379.28125-54.902344 41.199219-45.890625-34.449219-45.878906 34.4375-.011719.011719-45.886719-34.449219-45.882812 34.449219-54.890625-41.210938 18.011719-23.988281 36.878906 27.6875 45.882812-34.449219 45.886719 34.449219.011719-.007812 45.878906-34.441407 45.890625 34.449219 36.890625-27.6875zm0 0" fill="#b26d3c"/><path d="m402.671875 379.28125-54.902344 41.199219-45.890625-34.449219-45.878906 34.4375v-37.507812l45.878906-34.441407 45.890625 34.449219 36.890625-27.6875zm0 0" fill="#7a3d06"/></g><g transform="matrix(0.14915534144824072 -0.041432038722819656 0.041432038722819656 0.14915534144824072 178.20963067620855 46.422834502292204)" id="L1_82"><path d="m512 256c0 68.378906-26.628906 132.671875-74.980469 181.019531-48.347656 48.351563-112.640625 74.980469-181.019531 74.980469s-132.671875-26.628906-181.019531-74.980469c-48.351563-48.347656-74.980469-112.640625-74.980469-181.019531s26.628906-132.671875 74.980469-181.019531c48.347656-48.351563 112.640625-74.980469 181.019531-74.980469s132.671875 26.628906 181.019531 74.980469c48.351563 48.347656 74.980469 112.640625 74.980469 181.019531zm0 0" fill="#ffe171"/><path d="m512 256c0 68.378906-26.628906 132.671875-74.980469 181.019531-48.347656 48.351563-112.640625 74.980469-181.019531 74.980469v-512c68.378906 0 132.671875 26.628906 181.019531 74.980469 48.351563 48.347656 74.980469 112.640625 74.980469 181.019531zm0 0" fill="#ffd300"/><path d="m227.53125 190.332031h-30c0-14.152343-11.515625-25.667969-25.667969-25.667969-14.152343 0-25.667969 11.515626-25.667969 25.667969h-30c0-30.695312 24.972657-55.667969 55.667969-55.667969 30.695313 0 55.667969 24.976563 55.667969 55.667969zm0 0" fill="#b26d3c"/><path d="m395.804688 190.332031h-30c0-14.152343-11.515626-25.667969-25.667969-25.667969-14.152344 0-25.667969 11.515626-25.667969 25.667969h-30c0-30.695312 24.972656-55.667969 55.667969-55.667969 30.695312 0 55.667969 24.976563 55.667969 55.667969zm0 0" fill="#7a3d06"/><path d="m340.136719 269.710938s77.5625 33.375 72.753906 48.800781c-20.832031 66.835937-83.285156 115.488281-156.890625 115.488281-73.425781 0-135.753906-48.414062-156.738281-114.996094-4.90625-15.570312 72.601562-49.292968 72.601562-49.292968zm0 0" fill="#f95858"/><path d="m340.136719 269.710938s77.5625 33.375 72.753906 48.800781c-20.832031 66.835937-83.285156 115.488281-156.890625 115.488281v-164.289062zm0 0" fill="#ea1b5f"/><path d="m420.289062 254.710938v15c0 17.167968-2.648437 33.71875-7.558593 49.289062h-313.460938c-4.910156-15.570312-7.558593-32.121094-7.558593-49.289062v-15zm0 0" fill="#dcf3ff"/><path d="m420.289062 254.710938v15c0 17.167968-2.648437 33.71875-7.558593 49.289062h-156.730469v-64.289062zm0 0" fill="#b0e2fa"/></g><g transform="matrix(0.12153398333114651 0.04419417597595351 -0.04419417597595351 0.12153398333114651 319.2010093170706 128.5735912173824)" id="L1_83"><path d="m512 256c0 68.378906-26.628906 132.671875-74.980469 181.019531-48.347656 48.351563-112.640625 74.980469-181.019531 74.980469s-132.671875-26.628906-181.019531-74.980469c-48.351563-48.347656-74.980469-112.640625-74.980469-181.019531s26.628906-132.671875 74.980469-181.019531c48.347656-48.351563 112.640625-74.980469 181.019531-74.980469s132.671875 26.628906 181.019531 74.980469c48.351563 48.347656 74.980469 112.640625 74.980469 181.019531zm0 0" fill="#ffe171"/><path d="m512 256c0 68.378906-26.628906 132.671875-74.980469 181.019531-48.347656 48.351563-112.640625 74.980469-181.019531 74.980469v-512c68.378906 0 132.671875 26.628906 181.019531 74.980469 48.351563 48.347656 74.980469 112.640625 74.980469 181.019531zm0 0" fill="#ffd300"/><path d="m405.289062 269.710938c0 82.449218-66.839843 149.289062-149.289062 149.289062s-149.289062-66.839844-149.289062-149.289062zm0 0" fill="#dcf3ff"/><path d="m227.53125 190.332031h-30c0-14.152343-11.515625-25.667969-25.667969-25.667969-14.152343 0-25.667969 11.515626-25.667969 25.667969h-30c0-30.695312 24.972657-55.667969 55.667969-55.667969 30.695313 0 55.667969 24.976563 55.667969 55.667969zm0 0" fill="#b26d3c"/><path d="m395.804688 190.332031h-30c0-14.152343-11.515626-25.667969-25.667969-25.667969-14.152344 0-25.667969 11.515626-25.667969 25.667969h-30c0-30.695312 24.972656-55.667969 55.667969-55.667969 30.695312 0 55.667969 24.976563 55.667969 55.667969zm0 0" fill="#7a3d06"/><path d="m405.289062 269.710938c0 82.449218-66.839843 149.289062-149.289062 149.289062v-149.289062zm0 0" fill="#b0e2fa"/><path d="m91.710938 254.710938v15c0 90.589843 73.699218 164.289062 164.289062 164.289062s164.289062-73.699219 164.289062-164.289062v-15zm74.640624 114.898437c-23.882812-21.449219-40.0625-51.328125-43.8125-84.898437h43.8125zm74.648438 33.550781c-15.878906-1.769531-30.921875-6.320312-44.648438-13.148437v-105.300781h44.648438zm74.648438-13.148437c-13.726563 6.828125-28.769532 11.378906-44.648438 13.148437v-118.449218h44.648438zm30-20.402344v-84.898437h43.8125c-3.75 33.570312-19.929688 63.449218-43.8125 84.898437zm0 0" fill="#b26d3c"/><path d="m256 254.710938v179.289062c90.589844 0 164.289062-73.699219 164.289062-164.289062v-15zm59.648438 135.300781c-13.726563 6.828125-28.769532 11.378906-44.648438 13.148437v-118.449218h44.648438zm30-20.402344v-84.898437h43.8125c-3.75 33.570312-19.929688 63.449218-43.8125 84.898437zm0 0" fill="#7a3d06"/></g><g transform="matrix(0.1491553357691021 0.10219903018366579 -0.10219903018366579 0.1491553357691021 166.9791857701283 129.6532823160914)" id="L1_84"><path d="m512 256c0 68.378906-26.628906 132.671875-74.980469 181.019531-48.347656 48.351563-112.640625 74.980469-181.019531 74.980469s-132.671875-26.628906-181.019531-74.980469c-48.351563-48.347656-74.980469-112.640625-74.980469-181.019531s26.628906-132.671875 74.980469-181.019531c48.347656-48.351563 112.640625-74.980469 181.019531-74.980469s132.671875 26.628906 181.019531 74.980469c48.351563 48.347656 74.980469 112.640625 74.980469 181.019531zm0 0" fill="#ffe171"/><path d="m512 256c0 68.378906-26.628906 132.671875-74.980469 181.019531-48.347656 48.351563-112.640625 74.980469-181.019531 74.980469v-512c68.378906 0 132.671875 26.628906 181.019531 74.980469 48.351563 48.347656 74.980469 112.640625 74.980469 181.019531zm0 0" fill="#ffd300"/><path d="m227.53125 222.695312h-30c0-14.152343-11.515625-25.667968-25.667969-25.667968-14.152343 0-25.667969 11.515625-25.667969 25.667968h-30c0-30.695312 24.972657-55.667968 55.667969-55.667968 30.695313 0 55.667969 24.972656 55.667969 55.667968zm0 0" fill="#b26d3c"/><path d="m405.710938 280.46875v15c0 82.550781-67.160157 149.710938-149.710938 149.710938s-149.710938-67.160157-149.710938-149.710938v-15zm0 0" fill="#b26d3c"/><path d="m405.710938 280.46875v15c0 82.550781-67.160157 149.710938-149.710938 149.710938v-164.710938zm0 0" fill="#7a3d06"/><path d="m333.148438 340.671875v94.179687c0 42.539063-34.609376 77.148438-77.148438 77.148438s-77.148438-34.609375-77.148438-77.148438v-94.179687zm0 0" fill="#f95858"/><path d="m333.148438 340.671875v94.179687c0 42.539063-34.609376 77.148438-77.148438 77.148438v-171.328125zm0 0" fill="#ea1b5f"/><path d="m241 340.671875h30v70.828125h-30zm0 0" fill="#d83535"/><path d="m256 340.671875h15v70.828125h-15zm0 0" fill="#b70641"/><path d="m357.015625 154.332031c-24.132813 0-43.761719 19.632813-43.761719 43.765625 0 24.132813 19.632813 43.761719 43.761719 43.761719 24.132813 0 43.765625-19.632813 43.765625-43.761719 0-24.132812-19.632812-43.765625-43.765625-43.765625zm0 0" fill="#7a3d06"/></g><g transform="matrix(0.18238465487957 0 0 0.18238465487957 -46.69047164916992 247.30952835083008)" id="L1_85"><path d="m512 256c0 62.460938-22.21875 121.511719-62.921875 168.109375-3.847656 4.421875-25.371094 3.039063-25.371094 3.039063s6.792969 16.222656 3.433594 19.25c-47.0625 42.402343-107.320313 65.601562-171.140625 65.601562-63.710938 0-123.871094-23.121094-170.890625-65.378906-3.449219-3.101563-3.652344-15.097656-3.652344-15.097656s-14.535156-2.84375-18.316406-7.171876c-40.839844-46.640624-63.140625-105.78125-63.140625-168.351562 0-9.859375.550781-19.640625 1.648438-29.289062.59375-5.242188 7.691406-10.175782 7.691406-10.175782s-3.496094-15.585937-2.300782-20.59375c10.871094-45.421875 34.082032-87.101562 67.941407-120.960937 48.347656-48.351563 112.640625-74.980469 181.019531-74.980469s132.671875 26.628906 181.019531 74.980469c33.929688 33.929687 57.171875 75.71875 68.011719 121.257812 1.308594 5.507813-5.78125 16.671875-5.78125 16.671875s10.601562 9.375 11.128906 14.109375c1.082032 9.550781 1.621094 19.21875 1.621094 28.980469zm0 0" fill="#ffe171"/><path d="m512 256c0 62.460938-22.21875 121.507812-62.914062 168.113281-3.859376 4.417969-18.789063 6.386719-18.789063 6.386719s.207031 12.871094-3.15625 15.898438c-47.0625 42.40625-107.320313 65.601562-171.140625 65.601562v-512c68.378906 0 132.671875 26.628906 181.019531 74.980469 33.933594 33.933593 57.167969 75.71875 68.007813 121.261719 1.289062 5.417968-4.09375 19.96875-4.09375 19.96875s8.914062 5.988281 9.453125 10.808593c1.070312 9.554688 1.613281 19.226563 1.613281 28.980469zm0 0" fill="#ffd300"/><path d="m340.136719 212.378906c-30.695313 0-55.667969-24.972656-55.667969-55.667968h30c0 14.152343 11.515625 25.667968 25.667969 25.667968 14.152343 0 25.667969-11.515625 25.667969-25.667968h30c0 30.695312-24.972657 55.667968-55.667969 55.667968zm0 0" fill="#7a3d06"/><path d="m171.863281 212.378906c-30.695312 0-55.667969-24.972656-55.667969-55.667968h30c0 14.152343 11.515626 25.667968 25.667969 25.667968 14.152344 0 25.667969-11.515625 25.667969-25.667968h30c0 30.695312-24.972656 55.667968-55.667969 55.667968zm0 0" fill="#b26d3c"/><path d="m386.570312 390.679688 62.507813 33.429687c-3.847656 4.421875-7.867187 8.71875-12.058594 12.910156-3.21875 3.21875-6.519531 6.351563-9.878906 9.378907l-57.96875-31c-29.871094 19.570312-70.222656 30.601562-113.171875 30.601562-42.808594 0-83.039062-10.949219-112.871094-30.398438l-58.019531 31.019532c-3.449219-3.101563-6.828125-6.300782-10.128906-9.601563-4.109375-4.109375-8.058594-8.339843-11.839844-12.667969l62.289063-33.3125v-103.800781l-123.78125-60.527343c1.179687-10.410157 2.980468-20.679688 5.390624-30.769532l135.5625 66.289063c29.886719-19.671875 70.339844-30.75 113.398438-30.75 43.199219 0 83.769531 11.160156 113.691406 30.941406l135.339844-66.183594c2.398438 10.089844 4.1875 20.363281 5.347656 30.78125l-123.808594 60.539063zm0 0" fill="#dcf3ff"/><path d="m386.570312 390.679688 62.507813 33.429687c-3.847656 4.421875-7.867187 8.71875-12.058594 12.910156-3.21875 3.21875-6.519531 6.351563-9.878906 9.378907l-57.96875-31c-29.871094 19.570312-70.222656 30.601562-113.171875 30.601562v-214.519531c43.199219 0 83.769531 11.160156 113.691406 30.941406l135.339844-66.183594c2.398438 10.089844 4.1875 20.363281 5.347656 30.78125l-123.808594 60.539063zm0 0" fill="#b0e2fa"/></g></defs><g fi:class="KUsePattern"><pattern id="pattern_L1_80" width="350" height="350" patternUnits="userSpaceOnUse"><use xlink:href="#L1_80" x="-350" y="-350"/><use xlink:href="#L1_80" x="0" y="-350"/><use xlink:href="#L1_80" x="350" y="-350"/><use xlink:href="#L1_80" x="-350" y="0"/><use xlink:href="#L1_80" x="0" y="0"/><use xlink:href="#L1_80" x="350" y="0"/><use xlink:href="#L1_80" x="-350" y="350"/><use xlink:href="#L1_80" x="0" y="350"/><use xlink:href="#L1_80" x="350" y="350"/></pattern><rect x="0" y="0" width="100%" height="100%" fill="url(#pattern_L1_80)"/></g><g fi:class="KUsePattern"><pattern id="pattern_L1_81" width="350" height="350" patternUnits="userSpaceOnUse"><use xlink:href="#L1_81" x="-350" y="-350"/><use xlink:href="#L1_81" x="0" y="-350"/><use xlink:href="#L1_81" x="350" y="-350"/><use xlink:href="#L1_81" x="-350" y="0"/><use xlink:href="#L1_81" x="0" y="0"/><use xlink:href="#L1_81" x="350" y="0"/><use xlink:href="#L1_81" x="-350" y="350"/><use xlink:href="#L1_81" x="0" y="350"/><use xlink:href="#L1_81" x="350" y="350"/></pattern><rect x="0" y="0" width="100%" height="100%" fill="url(#pattern_L1_81)"/></g><g fi:class="KUsePattern"><pattern id="pattern_L1_82" width="350" height="350" patternUnits="userSpaceOnUse"><use xlink:href="#L1_82" x="-350" y="-350"/><use xlink:href="#L1_82" x="0" y="-350"/><use xlink:href="#L1_82" x="350" y="-350"/><use xlink:href="#L1_82" x="-350" y="0"/><use xlink:href="#L1_82" x="0" y="0"/><use xlink:href="#L1_82" x="350" y="0"/><use xlink:href="#L1_82" x="-350" y="350"/><use xlink:href="#L1_82" x="0" y="350"/><use xlink:href="#L1_82" x="350" y="350"/></pattern><rect x="0" y="0" width="100%" height="100%" fill="url(#pattern_L1_82)"/></g><g fi:class="KUsePattern"><pattern id="pattern_L1_83" width="350" height="350" patternUnits="userSpaceOnUse"><use xlink:href="#L1_83" x="-350" y="-350"/><use xlink:href="#L1_83" x="0" y="-350"/><use xlink:href="#L1_83" x="350" y="-350"/><use xlink:href="#L1_83" x="-350" y="0"/><use xlink:href="#L1_83" x="0" y="0"/><use xlink:href="#L1_83" x="350" y="0"/><use xlink:href="#L1_83" x="-350" y="350"/><use xlink:href="#L1_83" x="0" y="350"/><use xlink:href="#L1_83" x="350" y="350"/></pattern><rect x="0" y="0" width="100%" height="100%" fill="url(#pattern_L1_83)"/></g><g fi:class="KUsePattern"><pattern id="pattern_L1_84" width="350" height="350" patternUnits="userSpaceOnUse"><use xlink:href="#L1_84" x="-350" y="-350"/><use xlink:href="#L1_84" x="0" y="-350"/><use xlink:href="#L1_84" x="350" y="-350"/><use xlink:href="#L1_84" x="-350" y="0"/><use xlink:href="#L1_84" x="0" y="0"/><use xlink:href="#L1_84" x="350" y="0"/><use xlink:href="#L1_84" x="-350" y="350"/><use xlink:href="#L1_84" x="0" y="350"/><use xlink:href="#L1_84" x="350" y="350"/></pattern><rect x="0" y="0" width="100%" height="100%" fill="url(#pattern_L1_84)"/></g><g fi:class="KUsePattern"><pattern id="pattern_L1_85" width="350" height="350" patternUnits="userSpaceOnUse"><use xlink:href="#L1_85" x="-350" y="-350"/><use xlink:href="#L1_85" x="0" y="-350"/><use xlink:href="#L1_85" x="350" y="-350"/><use xlink:href="#L1_85" x="-350" y="0"/><use xlink:href="#L1_85" x="0" y="0"/><use xlink:href="#L1_85" x="350" y="0"/><use xlink:href="#L1_85" x="-350" y="350"/><use xlink:href="#L1_85" x="0" y="350"/><use xlink:href="#L1_85" x="350" y="350"/></pattern><rect x="0" y="0" width="100%" height="100%" fill="url(#pattern_L1_85)"/></g></svg>